<!-- public/images/wave-pattern.svg -->
<svg width="1440" height="700" viewBox="0 0 1440 700" xmlns="http://www.w3.org/2000/svg">
  <path d="M0,128L48,144C96,160,192,192,288,186.7C384,181,480,139,576,138.7C672,139,768,181,864,186.7C960,192,1056,160,1152,133.3C1248,107,1344,85,1392,74.7L1440,64L1440,320L1392,320C1344,320,1248,320,1152,320C1056,320,960,320,864,320C768,320,672,320,576,320C480,320,384,320,288,320C192,320,96,320,48,320L0,320Z" 
        fill="#ffffff" fill-opacity="0.1"></path>
  <path d="M0,224L48,224C96,224,192,224,288,229.3C384,235,480,245,576,250.7C672,256,768,256,864,234.7C960,213,1056,171,1152,149.3C1248,128,1344,128,1392,128L1440,128L1440,320L1392,320C1344,320,1248,320,1152,320C1056,320,960,320,864,320C768,320,672,320,576,320C480,320,384,320,288,320C192,320,96,320,48,320L0,320Z" 
        fill="#ffffff" fill-opacity="0.05" transform="translate(0, 50)"></path>
  <path d="M0,288L48,272C96,256,192,224,288,213.3C384,203,480,213,576,224C672,235,768,245,864,218.7C960,192,1056,128,1152,106.7C1248,85,1344,107,1392,117.3L1440,128L1440,320L1392,320C1344,320,1248,320,1152,320C1056,320,960,320,864,320C768,320,672,320,576,320C480,320,384,320,288,320C192,320,96,320,48,320L0,320Z" 
        fill="#ffffff" fill-opacity="0.1" transform="translate(0, 100)"></path>
</svg>