<?xml version="1.0" encoding="utf-8"?>
<!-- Generator: Adobe Illustrator 27.5.0, SVG Export Plug-In . SVG Version: 6.00 Build 0)  -->
<svg version="1.1" xmlns="http://www.w3.org/2000/svg" xmlns:xlink="http://www.w3.org/1999/xlink" x="0px" y="0px"
	 viewBox="0 0 600 500" style="enable-background:new 0 0 600 500;" xml:space="preserve">
<g id="BACKGROUBD">
	<rect x="489.878" style="fill:#F2F5F7;" width="99.668" height="339.207"/>
	<g>
		<rect x="71.054" y="89.066" style="fill:#F2F5F7;" width="90.265" height="201.103"/>
		<rect x="34.495" y="55.011" style="fill:#F2F5F7;" width="31.48" height="28.976"/>
		<rect x="71.054" y="55.011" style="fill:#F2F5F7;" width="90.265" height="28.976"/>
		<rect x="166.398" y="55.011" style="fill:#F2F5F7;" width="31.898" height="28.976"/>
		<rect x="166.398" y="89.066" style="fill:#F2F5F7;" width="31.898" height="201.103"/>
		<rect x="34.495" y="89.066" style="fill:#F2F5F7;" width="31.48" height="201.103"/>
	</g>
	<g>
		<rect x="318.673" y="89.066" style="fill:#F2F5F7;" width="90.265" height="201.103"/>
		<rect x="282.114" y="55.011" style="fill:#F2F5F7;" width="31.48" height="28.976"/>
		<rect x="318.673" y="55.011" style="fill:#F2F5F7;" width="90.265" height="28.976"/>
		<rect x="414.017" y="55.011" style="fill:#F2F5F7;" width="31.898" height="28.976"/>
		<rect x="414.017" y="89.066" style="fill:#F2F5F7;" width="31.898" height="201.103"/>
		<rect x="282.114" y="89.066" style="fill:#F2F5F7;" width="31.48" height="201.103"/>
	</g>
	<rect y="343.559" style="fill:#F2F5F7;" width="600" height="14.964"/>
</g>
<g id="OBJECTS">
	<g>
		<path style="fill:#589160;" d="M315.109,303.408c0,0-11.101-1.993-11.561-9.507c-0.459-7.514,5.884-6.68-0.496-13.243
			c-6.379-6.563-8.652-7.768-9.731-15.651c-1.078-7.883,5.119-4.545-2.481-10.617c-7.6-6.072-8.112-11.221-10.466-18.154
			c-2.354-6.933-5.337-4.416-8.526-11.431c-3.188-7.015-2.242-21.318,4.174-18.4c6.416,2.918,10.71,8.309,13.421,17.449
			c2.711,9.14,6.626,7.54,9.854,14.867c3.228,7.327,1.402,8.877,4.426,11.861c3.024,2.984,6.733,5.42,7.055,9.734
			c0.322,4.315-3.401,9.575,1.165,12.219S315.109,303.408,315.109,303.408z"/>
		<path style="fill:#589160;" d="M322.525,263.412c0,0,7.653-12.292,5.347-20.03c-2.306-7.738-6.578-5.578-5.249-14.498
			s6.741-9.842,0-22.524c-6.741-12.682-3.513-17.68-6.28-24.445c-2.767-6.765-18.216-20.519-19.83-6.453s8.993,20.983,9.454,26.978
			c0.461,5.995-6.918,3.399-3.228,11.269c2.411,5.144,5.766,12.85,7.801,17.572c0.916,2.126,1.146,4.51,0.474,6.724
			C309.858,241.814,309.971,250.004,322.525,263.412z"/>
		<path style="fill:#589160;" d="M327.217,294.261c0,0-12.662-21.171-1.347-34.497c11.315-13.326,14.627-21.658,15.731-32.533
			c1.104-10.875,3.242-14.426,11.004-17.618c7.762-3.192,18.954-21.406,29.365-20.027s4.48,20.801-2.628,23.785
			c-7.108,2.984-15.111,1.009-15.663,11.38c-0.552,10.371-1.725,21.177-11.074,23.363c-9.348,2.186-11.986,21.448-14.807,29.066
			C334.977,284.799,327.217,294.261,327.217,294.261z"/>
		<g>
			<path style="fill:#FFC052;" d="M301.836,332.758c0,0-0.165,17.365,5.548,31.018c0,2.36,7.416,4.272,16.565,4.272
				c9.149,0,16.565-1.913,16.565-4.272c0,0,5.548-11.487,5.548-31.018H301.836z"/>
			<path style="fill:#8A4C27;" d="M346.063,332.758c0,1.004-9.901,1.818-22.113,1.818s-22.113-0.814-22.113-1.818
				c0-1.004,9.9-1.818,22.113-1.818S346.063,331.754,346.063,332.758z"/>
			<path style="fill:#DE9B49;" d="M304.017,333.546c3.571-0.609,11.155-1.03,19.933-1.03c8.778,0,16.362,0.42,19.933,1.03
				c1.397-0.238,2.181-0.506,2.181-0.788c0-1.004-9.9-1.818-22.113-1.818s-22.113,0.814-22.113,1.818
				C301.836,333.04,302.619,333.308,304.017,333.546z"/>
		</g>
		<path style="fill:none;stroke:#436E49;stroke-width:0.3614;stroke-miterlimit:10;" d="M363.679,212.022
			c0,0-21.25,26.412-30.357,54.857c-9.107,28.445-9.383,66.773-9.383,66.773s2.659-101.563-13.421-145.787"/>
		<path style="fill:none;stroke:#436E49;stroke-width:0.3614;stroke-miterlimit:10;" d="M323.609,333.28
			c0,0-18.336-73.607-43.219-111.897"/>
	</g>
	<g>
		<path style="fill:#7D59B8;" d="M88.155,66.702h-44.36h0C55.738,46.154,76.211,46.154,88.155,66.702L88.155,66.702z"/>
		<path style="fill:#99B0CC;" d="M88.155,66.702c0,0.572-9.93,1.036-22.18,1.036s-22.18-0.464-22.18-1.036
			c0-0.572,9.93-1.036,22.18-1.036S88.155,66.13,88.155,66.702z"/>
		<line style="fill:none;stroke:#0A0604;stroke-width:0.5;stroke-miterlimit:10;" x1="65.975" y1="51.292" x2="65.975" y2="0"/>
	</g>
	<g>
		<path style="fill:#7D59B8;" d="M226.145,66.702h-44.36l0,0C193.729,46.154,214.201,46.154,226.145,66.702L226.145,66.702z"/>
		<path style="fill:#99B0CC;" d="M226.145,66.702c0,0.572-9.93,1.036-22.18,1.036c-12.25,0-22.18-0.464-22.18-1.036
			c0-0.572,9.93-1.036,22.18-1.036C216.215,65.666,226.145,66.13,226.145,66.702z"/>
		<line style="fill:none;stroke:#0A0604;stroke-width:0.5;stroke-miterlimit:10;" x1="203.965" y1="51.292" x2="203.965" y2="0"/>
	</g>
	<g>
		<path style="fill:#7D59B8;" d="M364.135,66.702h-44.36l0,0C331.719,46.154,352.192,46.154,364.135,66.702L364.135,66.702z"/>
		<path style="fill:#99B0CC;" d="M364.135,66.702c0,0.572-9.93,1.036-22.18,1.036c-12.25,0-22.18-0.464-22.18-1.036
			c0-0.572,9.93-1.036,22.18-1.036C354.205,65.666,364.135,66.13,364.135,66.702z"/>
		<line style="fill:none;stroke:#0A0604;stroke-width:0.5;stroke-miterlimit:10;" x1="341.956" y1="51.292" x2="341.956" y2="0"/>
	</g>
	<g>
		
			<ellipse transform="matrix(0.2322 -0.9727 0.9727 0.2322 341.165 582.7521)" style="fill:#C5D5E8;" cx="539.712" cy="75.274" rx="24.816" ry="24.816"/>
		
			<ellipse transform="matrix(0.2725 -0.9622 0.9622 0.2725 320.2103 574.0465)" style="fill:#99B0CC;" cx="539.712" cy="75.274" rx="20.263" ry="20.263"/>
		<polygon style="fill:#C5D5E8;" points="539.712,62.714 538.895,77.331 540.529,77.331 		"/>
		<polygon style="fill:#C5D5E8;" points="554.469,81.524 537.969,74.229 537.377,75.753 		"/>
	</g>
	<g>
		<ellipse style="fill:#F2F5F7;" cx="391.893" cy="413.154" rx="136.009" ry="26.997"/>
		<path style="fill:#99B0CC;" d="M397.877,316.142l-10.36,78.7c-0.252,1.917-2.01,3.266-3.927,3.014l0,0
			c-1.79-0.235-3.108-1.794-3.043-3.599l2.859-78.7c0.068-1.883,1.615-3.374,3.499-3.374h7.502
			C396.521,312.184,398.153,314.045,397.877,316.142z"/>
		<path style="fill:#99B0CC;" d="M453.113,307.142l-10.36,78.7c-0.252,1.917-2.01,3.266-3.927,3.014l0,0
			c-1.791-0.235-3.108-1.794-3.043-3.598l2.859-78.7c0.068-1.883,1.615-3.374,3.499-3.374h7.502
			C451.757,303.183,453.389,305.044,453.113,307.142z"/>
		<path style="fill:#99B0CC;" d="M505.746,333.461l10.36,78.7c0.252,1.917,2.01,3.266,3.927,3.014l0,0
			c1.791-0.235,3.108-1.794,3.043-3.599l-2.859-78.7c-0.068-1.883-1.615-3.374-3.499-3.374h-7.502
			C507.102,329.503,505.47,331.364,505.746,333.461z"/>
		<path style="fill:#99B0CC;" d="M454.158,347.263l10.36,78.7c0.252,1.917,2.01,3.266,3.927,3.014l0,0
			c1.79-0.235,3.108-1.794,3.043-3.598l-2.859-78.7c-0.068-1.883-1.615-3.374-3.499-3.374h-7.502
			C455.514,343.305,453.882,345.166,454.158,347.263z"/>
		<path style="fill:#C5D5E8;" d="M558.491,181.808c-7.433-27.962-99.721-22.828-114.029-17.941
			c-11.17,3.815-13.862,64.324-14.505,90.682c-21.696,1.175-46.715,5.21-53.326,17.186c-4.302,7.794-3.119,52.741-2.768,56.946
			c0.282,3.379,4.799,3.314,4.799,3.314l77.737,14.039c6.221,3.303,58.174-3.303,66.374-4.542
			c8.198-1.238,25.217-71.545,25.224-71.576C554.27,244.787,563.628,201.132,558.491,181.808z"/>
		<path style="fill:#AEC9E8;" d="M441.427,320.33c0,0-56.279,3.767-57.939-10.082c-3.012-25.124,0.47-42.558,13.231-43.507
			c12.762-0.949,58.238-2.465,58.238-2.465L441.427,320.33z"/>
		<path style="fill:#AEC9E8;" d="M547.998,269.917c6.272-25.13,15.63-68.785,10.493-88.109c-2.05-7.714-10.566-12.905-22.114-16.282
			c1.15,18.841,3.346,80.654-15.557,101.215c-15.077,16.399,6.904,19.522,22.903,19.81
			C546.3,276.931,547.995,269.927,547.998,269.917z"/>
		<path style="fill:#CF7E50;" d="M446.311,210.079l-9.065,20.674c0,0,6.342,5.093,17.185,4.597l6.817-18.35
			C461.248,217,451.133,210.719,446.311,210.079z"/>
		<path style="fill:#CF7E50;" d="M441.427,225.073c0,0,9.653-8.073,13.004,10.277c0,0-3.657,10.73-36.576,5.98l1.037-9.044
			C418.892,232.286,437.742,224.05,441.427,225.073z"/>
		<g>
			<g>
				<g>
					<path style="fill:#CF7E50;" d="M410.725,414.954c0,0-7.81-22.73-11.575-15.9c-1.772,3.216-18.486,19.074-32.138,20.774
						c0,0-4.285,5.722,17.188,4.803C405.673,423.711,412.302,422.334,410.725,414.954z"/>
					<path style="fill:#CF7E50;" d="M410.275,413.696l1.787-14.488c0,0-10.869-9.587-12.171-1.092L410.275,413.696z"/>
					<path style="fill:#293173;" d="M361.328,425.905c18.318,7.168,38.762-1.94,38.762-1.94c10.03,0.79,12.212-1.631,10.635-9.012
						c0,0-0.046-0.21-0.131-0.577h0c-0.061,0.033-0.122,0.066-0.182,0.098c-4.184,2.249-9.203-1.077-8.838-5.813
						c0.262-3.405,0.242-6.781-0.583-8.416c-0.424-0.84-1.08-1.168-1.84-1.193c0,0,0,0.001,0,0.001
						c-0.388,0.358-0.809,0.733-1.279,1.137c-0.043,0.037-0.09,0.076-0.133,0.113c-0.43,0.368-0.87,0.74-1.36,1.139
						c-7.212,5.904-20.599,14.908-30.591,17.026c-1.929,0.409-3.774,1.223-5.207,2.578
						C358.349,423.157,358.693,424.874,361.328,425.905z"/>
					<path style="fill:#FFFFFF;" d="M400.091,423.965c0,0-20.444,9.108-38.762,1.94c-2.635-1.031-2.979-2.748-0.747-4.858
						c1.433-1.355,3.277-2.169,5.207-2.578c1.568-0.332,3.226-0.85,4.924-1.483c3.369,3.238,4.397,7.946,4.397,7.946
						c11.759,0.647,27.853-4.18,27.853-4.18c2.351-2.702,5.407-4.531,7.789-5.667C412.271,422.359,410.059,424.751,400.091,423.965z
						"/>
					<g>
						<g>
							<path style="fill:#FFFFFF;" d="M388.236,405.86c3.382-0.078,5.577,2.613,7.314,5.146c-0.119-0.388-0.278-0.761-0.419-1.147
								C394.009,407.307,391.166,404.849,388.236,405.86L388.236,405.86z"/>
							<path style="fill:#FFFFFF;" d="M384.791,408.291c3.804,0.106,6.623,2.706,8.87,5.5
								C392.319,410.379,388.619,407.287,384.791,408.291L384.791,408.291z"/>
							<path style="fill:#FFFFFF;" d="M382.045,410.807c3.804,0.106,6.623,2.706,8.87,5.5
								C389.574,412.896,385.873,409.804,382.045,410.807L382.045,410.807z"/>
						</g>
						<path style="fill:#FFFFFF;" d="M397.994,408.868c-1.585-0.212-2.84-1.386-3.575-2.696l-0.193,0.247
							c2.034,0.46,4.727,1.009,6.363-0.724c0.7-0.957,0.96-2.621-0.151-3.374c-1.134-0.546-2.352,0.052-3.379,0.456
							c-1.334,0.603-2.561,1.355-3.742,2.203l0.559,0.302c-0.062-0.941,0.547-7.914-1.239-6.685
							c-0.825,1.131-0.579,2.313-0.613,3.553c0.051,1.158,0.16,2.304,0.35,3.444l0.097-0.16c-0.258,0.074-0.625,0.018-0.932-0.085
							c-0.978-0.335-1.78-1.036-2.519-1.75c0.914,1.006,2.051,2.268,3.55,2.114c0,0,0.109-0.023,0.109-0.023
							c-0.103-1.18-0.195-2.369-0.192-3.55c-0.029-0.954,0.121-2.534,0.51-3.098c0.344,1.727,0.266,4.218,0.173,6.206
							c0,0-0.035,0.709-0.035,0.709l0.594-0.406c1.179-0.725,6.16-4.329,6.772-2.018c0.399,3.34-3.957,3.067-6.189,2.556
							c0,0-0.407-0.084-0.407-0.084C394.781,407.474,396.221,408.8,397.994,408.868L397.994,408.868z"/>
					</g>
				</g>
				<path style="fill:#293173;" d="M491.127,246.557c0,0,20.501,38.284,6.446,51.02c-14.055,12.736-82.816,13.938-82.816,13.938
					l6.93,90.768l-24.376-0.547c0,0-6.425-100.559-7.129-108.039c-2.401-25.496,74.784-28.162,74.784-28.162L491.127,246.557z"/>
				<path style="fill:#4955A6;" d="M467.351,256.895c0,0-5.797,13.743-5.167,20.678l31.982-20.325L467.351,256.895z"/>
				<g>
					<path style="fill:#6C86A6;" d="M408.486,421.387c0-1.815-11.647-3.287-26.014-3.287c-14.367,0-26.014,1.472-26.014,3.287
						c0,0.685,0,4.653,0,5.338c0,1.815,11.647,3.287,26.014,3.287c14.367,0,26.014-1.472,26.014-3.287
						C408.486,426.039,408.486,422.071,408.486,421.387z"/>
					<path style="fill:#99B0CC;" d="M408.486,421.387c0,1.815-11.647,3.287-26.014,3.287c-14.367,0-26.014-1.472-26.014-3.287
						c0-1.815,11.647-3.287,26.014-3.287C396.839,418.1,408.486,419.571,408.486,421.387z"/>
					<rect x="377.743" y="263.403" style="fill:#6C86A6;" width="9.459" height="158.485"/>
				</g>
				<g>
					<path style="fill:#CF7E50;" d="M443.536,412.992c0,0-11.102-25.742-13.713-17.675c-1.229,3.797-17.721,27.257-31.944,31.885
						c0,0-3.395,6.991,19.336,1.585C439.947,423.382,446.74,420.546,443.536,412.992z"/>
					<path style="fill:#CF7E50;" d="M442.876,411.508l-1.215-12.222c0,0-5.395-7.867-10.505-5.483L442.876,411.508z"/>
					<path style="fill:#293173;" d="M393.063,434.861c21.031,3.877,40.978-10.058,40.978-10.058
						c10.87-1.223,12.699-4.257,9.496-11.811c0,0-0.093-0.215-0.258-0.589h0c-0.058,0.048-0.116,0.095-0.174,0.143
						c-4.003,3.262-10.046,0.747-10.632-4.384c-0.422-3.688-1.138-7.288-2.357-8.864c-0.626-0.809-1.393-1.024-2.21-0.895
						c0,0,0,0.001,0,0.001c-0.341,0.462-0.713,0.949-1.131,1.477c-0.038,0.048-0.081,0.1-0.119,0.149
						c-0.383,0.481-0.776,0.969-1.217,1.496c-6.482,7.788-18.917,20.158-29.146,24.477c-1.975,0.834-3.776,2.083-5.027,3.825
						C389.317,432.541,390.038,434.303,393.063,434.861z"/>
					<path style="fill:#FFFFFF;" d="M434.041,424.803c0,0-19.947,13.934-40.978,10.058c-3.025-0.558-3.746-2.319-1.798-5.032
						c1.251-1.742,3.052-2.99,5.027-3.825c1.605-0.678,3.268-1.572,4.951-2.598c4.264,2.762,6.331,7.576,6.331,7.576
						c12.685-1.732,28.87-10.201,28.87-10.201c1.953-3.368,4.838-5.951,7.147-7.654
						C446.712,420.579,444.843,423.588,434.041,424.803z"/>
					<g>
						<g>
							<path style="fill:#FFFFFF;" d="M419.988,407.32c2.926-0.165,3.216,1.524,4.746,3.762c-0.107-0.347-0.249-0.679-0.375-1.024
								C423.361,407.785,422.513,406.325,419.988,407.32L419.988,407.32z"/>
							<path style="fill:#FFFFFF;" d="M418.124,409.342c3.293-0.01,3.03,1.847,5.005,4.308
								C421.932,410.606,421.425,408.329,418.124,409.342L418.124,409.342z"/>
							<path style="fill:#FFFFFF;" d="M416.006,411.47c3.293-0.01,2.8,2.068,4.774,4.529
								C419.583,412.955,419.307,410.457,416.006,411.47L416.006,411.47z"/>
						</g>
						<path style="fill:#FFFFFF;" d="M428.334,409.443c-1.727-0.193-3.12-1.439-3.95-2.846l-0.204,0.273
							c2.221,0.452,5.161,0.985,6.899-0.938c0.738-1.057,0.982-2.871-0.244-3.664c-1.245-0.566-2.555,0.112-3.663,0.576
							c-1.436,0.688-2.752,1.534-4.015,2.483l0.615,0.315c-0.09-1.022,0.407-8.614-1.505-7.237c-0.87,1.249-0.574,2.528-0.583,3.876
							c0.083,1.258,0.229,2.501,0.462,3.735l0.102-0.176c-0.278,0.087-0.678,0.035-1.015-0.07c-1.07-0.341-1.959-1.084-2.779-1.842
							c1.017,1.072,2.283,2.416,3.909,2.214c0,0,0.118-0.027,0.118-0.027c-0.14-1.28-0.268-2.57-0.293-3.853
							c-0.054-1.036,0.072-2.757,0.481-3.379c0.415,1.869,0.389,4.578,0.335,6.741l-0.021,0.771l0.636-0.456
							c1.264-0.816,6.593-4.851,7.313-2.354c0.512,3.62-4.228,3.428-6.666,2.924c0,0-0.445-0.082-0.445-0.082
							C424.809,408.004,426.406,409.411,428.334,409.443L428.334,409.443z"/>
					</g>
				</g>
				<path style="fill:#4955A6;" d="M516.65,251.656c0,0,5.275,34.932-8.78,47.668c-14.055,12.736-63.587,12.861-63.587,12.861
					l-2.99,88.255h-23.728c0,0-9.071-100.806-9.896-108.274c-2.115-19.145,64.581-22.249,64.581-22.249L516.65,251.656z"/>
			</g>
			<g>
				<path style="fill:#7D59B8;" d="M471.099,165.05l10.224-2.936l25.415,0.507l12.605,7.516c5.629,3.764,20.038,7.353,18.813,24.807
					c-0.323,4.604-0.593,9.212-1.359,13.763l-2.057,12.227c0,0-15.483-4.117-30.193-5.935l14.481-3.892l5.706,3.269l-5.39,54.072
					c0,0-57.161,9.125-70.097-4.173c0,0-0.183-21.448,4.584-49.68c0,0-6.345-0.257-12.403-3.782c0,0,7.873-24.684,12.92-34.686
					C455.326,174.188,456.967,166.877,471.099,165.05z"/>
				<path style="fill:#674997;" d="M508.006,215.279c1.352-6.152,3.479-12.039,6.391-17.625
					C513.052,203.808,510.911,209.69,508.006,215.279L508.006,215.279z"/>
				<path style="fill:#CF7E50;" d="M506.738,162.621c0,0-2.418-10.699-2.936-15.562c-0.609-5.725,0.787-5.422,1.427-10.598
					l-20.284,3.367c0,0-0.205,21.117-3.622,22.286v0c-4.048,8.448,1.573,11.071,14.663,6.696c2.687-0.898,5.209-2.233,7.515-3.879
					L506.738,162.621z"/>
				<path style="fill:#A3623C;" d="M485.033,147.588c0,0,0.057,4.681-3.083,14.431c15.206-0.652,21.852-14.96,21.852-14.96l0,0
					c0,0,0.117-3.072,0.444-4.302L485.033,147.588z"/>
				<path style="fill:#CF7E50;" d="M466.479,129.921c0,0-1.16,33.13,12.458,31.709c9.046-0.944,19.699-8.827,18.855-15.14
					c-1.008-7.542,5.998-11.19,6.371-13.25c0.735-4.055,1.272-15.556-6.477-17.808C489.936,113.179,469.78,110.053,466.479,129.921z
					"/>
				<path style="fill:none;stroke:#0A0604;stroke-miterlimit:10;" d="M526.199,117.876"/>
				<path style="fill:#674997;" d="M452.947,193.641c1.485,1.543,2.795,3.199,4.02,4.92c-0.322,2.607-0.658,5.212-1.107,7.802
					c-0.421,2.516-0.921,5.021-1.55,7.508c0.057-2.565,0.243-5.113,0.508-7.65c0.251-2.539,0.607-5.063,0.98-7.586l0.093,0.399
					C454.798,197.312,453.792,195.531,452.947,193.641L452.947,193.641z"/>
				<path style="fill:#593119;" d="M467.418,126.052c0,0,0.241-0.72,1.755-3.284c1.397-2.367,0.603,1.649,5.168,1.34
					c0,0,22.941-13.44,17.36,14.226l7.122,6.161l5.225,3.291l1.898-5.029c1.26-2.335,9.426-34.94-21.655-29.37
					C466.37,116.599,467.418,126.052,467.418,126.052z"/>
				<path style="fill:#CF7E50;" d="M501.464,142.002c-1.501,3.06-4.587,4.623-6.894,3.492c-2.307-1.132-2.96-4.529-1.459-7.589
					c1.501-3.06,4.588-4.623,6.894-3.492C502.311,135.544,502.965,138.942,501.464,142.002z"/>
				<path style="fill:#A3623C;" d="M499.564,136.743c-2.156,1.13-3.801,3.016-3.861,5.405c0,0-0.62-0.201-0.62-0.201
					c0.808-0.907,1.64-1.795,2.57-2.609c-0.761,1.351-1.712,2.604-2.64,3.841l-0.007-1.021
					C494.837,139.578,496.948,137.165,499.564,136.743L499.564,136.743z"/>
				<path style="fill:#593119;" d="M516.631,116.072"/>
				<g>
					<path style="fill:#8E4D26;" d="M483.251,148.809c-1.59,2.707-5.043,4.657-8.192,3.844
						C478.131,152.002,480.61,150.512,483.251,148.809L483.251,148.809z"/>
				</g>
				<path style="fill:#A3623C;" d="M471.281,140.354l-1.633,4.767c-0.392,1.415-0.879,3.214-0.108,3.825
					c2.159,1.711,4.182,0.679,4.182,0.679s1.395-1.716,1.307-2.231c-0.56-3.302-1.414-9.095-2.775-8.461
					C471.522,139.275,471.281,140.354,471.281,140.354z"/>
				<path style="fill:#29160B;" d="M472.083,149.147c0,0,0.982-1.555,2.381-1.152"/>
				<g>
					<g>
						<g>
							<path style="fill:#593119;" d="M484.315,130.903c0,0-3.322-2.838-6.439-1.103c-1.768,0.984-0.227,2.253,1.14,2.729
								C480.382,133.006,485.457,132.874,484.315,130.903z"/>
						</g>
						<g>
							<path style="fill:#593119;" d="M470.932,132.772c0,0-4.147-0.319-4.873,2.411c-0.412,1.548,1.477,1.663,2.686,1.318
								C469.953,136.156,473.073,133.567,470.932,132.772z"/>
						</g>
					</g>
					<g>
						<g>
							<path style="fill:#0A0604;" d="M467.555,141.137c0.329,0.46,0.745,0.911,1.103,1.311c0.092,0.078,0.063,0.074,0.138,0.074
								c0.593-0.142,1.066-0.895,1.396-1.465c0.208,0.978-0.569,2.572-1.754,2.202c-0.382-0.188-0.544-0.555-0.679-0.878
								C467.608,142.006,467.46,141.575,467.555,141.137L467.555,141.137z"/>
						</g>
					</g>
					<g>
						<g>
							<path style="fill:#0A0604;" d="M481.951,139.392c0.008,2.177-3.021,3.815-4.75,2.404c-0.568-0.405-1.01-0.94-1.279-1.547
								c0.901,0.705,2.07,1.464,3.182,1.204C480.243,141.087,481.248,140.442,481.951,139.392L481.951,139.392z"/>
						</g>
					</g>
				</g>
			</g>
		</g>
		<path style="fill:#99B0CC;" d="M513.884,249.06c0-5.046-58.835-9.137-131.412-9.137s-131.412,4.091-131.412,9.137
			c0,1.904,0,8.365,0,10.268c0,5.046,58.835,9.137,131.412,9.137s131.412-4.091,131.412-9.137
			C513.884,257.424,513.884,250.963,513.884,249.06z"/>
		<ellipse style="fill:#C5D5E8;" cx="382.472" cy="249.06" rx="131.412" ry="9.137"/>
		<g>
			<g>
				<ellipse style="fill:#8FA5BF;" cx="369.876" cy="247.825" rx="9.459" ry="1.809"/>
				<g>
					<path style="fill:#FFC052;" d="M354.975,241.943c1.322,1.696,2.995,2.565,4.861,2.565c0.019,0,0.04-0.006,0.059-0.006
						c0.465,1.553,0.819,2.389,0.819,2.389c0,1.467,4.102,2.657,9.161,2.657c5.06,0,9.161-1.19,9.161-2.657
						c3.16-8.491,3.068-19.29,3.068-19.29h-24.459c0,1.476,0.047,2.875,0.126,4.199c-0.504-0.193-1.025-0.332-1.554-0.335
						c-0.994-0.019-1.813,0.377-2.484,1.106C352.107,234.337,352.734,239.066,354.975,241.943z M354.84,233.462
						c0.392-0.425,0.836-0.632,1.36-0.632c0.003,0,0.007,0,0.01,0c0.543,0.003,1.125,0.222,1.679,0.527
						c0.295,3.529,0.82,6.441,1.341,8.645c0.131,0.554-0.48,1.006-1.032,0.771c-0.874-0.373-1.549-1-2.043-1.633
						C354.07,238.464,353.863,234.521,354.84,233.462z"/>
					<ellipse style="fill:#593119;" cx="369.876" cy="227.601" rx="12.229" ry="1.13"/>
					<path style="fill:#FFC052;" d="M380.9,228.091c-1.975-0.379-6.169-0.64-11.023-0.64c-4.855,0-9.048,0.261-11.023,0.64
						c-0.773-0.148-1.206-0.314-1.206-0.49c0-0.624,5.475-1.13,12.229-1.13c6.754,0,12.23,0.506,12.23,1.13
						C382.106,227.777,381.673,227.943,380.9,228.091z"/>
				</g>
			</g>
		</g>
		<polygon style="fill:#CF7E50;" points="510.489,215.279 505.534,233.771 527.162,240.567 533.155,220.528 		"/>
		<polygon style="fill:#FFFFFF;" points="475.424,250.529 434.242,250.529 402.124,243.37 443.306,243.37 		"/>
		<g>
			<path style="fill:#CF7E50;" d="M469.224,240.621c0,0-20.835-3.174-21.982-2.755c-1.147,0.42-12.863,11.708-12.011,13.73
				c0.852,2.021,1.78,1.39,8.585-5.039c6.805-6.428,5.248-3.73,5.248-3.73s8.087,4.797,8.888,6.621c0,0,12.095,2.234,14.918,0.034
				C472.87,249.483,476.23,241.331,469.224,240.621z"/>
			<path style="fill:#A3623C;" d="M449.064,242.828c0,0,1.557-2.699-5.248,3.73c-4.601,4.347-6.512,6.037-7.533,6.055
				c3.122-2.826,13.432-9.772,14.047-10.764l0,0l-1.057,1.105C449.151,242.879,449.064,242.828,449.064,242.828z"/>
			<path style="fill:#CF7E50;" d="M456.276,241.121c0,0-8.538,5.72-10.332,7.714c-1.794,1.993-4.12,5.204-4.871,5.793
				c-0.752,0.59-3.477,0.591-1.717-2.988c1.76-3.579,4.001-5.421,5.095-6.288c1.094-0.867,6.532-4.297,6.532-4.297L456.276,241.121z
				"/>
			<path style="fill:#CF7E50;" d="M461.964,241.854c0,0-8.538,5.72-10.332,7.714c-1.794,1.993-4.119,5.203-4.871,5.793
				c-0.752,0.59-3.477,0.591-1.717-2.988c1.76-3.579,4.001-5.421,5.095-6.288c1.094-0.867,6.532-4.297,6.532-4.297L461.964,241.854z
				"/>
			<path style="fill:#CF7E50;" d="M468.863,242.324c0,0-9.253,5.054-10.911,7.124c-1.659,2.07-3.764,5.374-4.477,5.999
				c-0.713,0.625-3.458,0.776-1.95-2.861c1.508-3.637,3.628-5.582,4.665-6.501c1.038-0.918,6.259-4.611,6.259-4.611L468.863,242.324
				z"/>
			<path style="fill:#CF7E50;" d="M468.9,240.797c0,0,1.844-0.599,3.97,8.686c0,0,42.518,1.786,47.135-0.288
				c3.702-1.663,5.793-5.832,7.157-8.628c0.336-0.688,0.091-1.864-0.565-2.794c-2.498-3.541-9.191-7.799-18.668-6.03
				C495.736,234.019,468.9,240.797,468.9,240.797z"/>
		</g>
		<g>
			<path style="fill:#CF7E50;" d="M413.263,225.535c0,0,8.729-4.313,10.701-2.387c0.59,0.577,3.232,5.485,3.054,6.045
				c-0.178,0.561-0.895,1.712-4.718-2.342l-1.781,2.142L413.263,225.535z"/>
			<g>
				<polygon style="fill:#593119;" points="428.1,230.011 427.637,231.443 405.129,218.266 406.054,217 				"/>
				<polygon style="fill:#FFFFFF;" points="430.951,232.532 427.637,231.443 428.1,230.011 				"/>
				<polygon style="fill:#424B87;" points="429.757,232.139 430.951,232.531 429.924,231.624 				"/>
			</g>
			<path style="fill:#CF7E50;" d="M413.679,244.06l-1.278-0.621c-3.308-1.911-0.479-11.494,0.45-13.33c0,0-2.05-4.012,0.412-5.671
				c1.954-1.316,5.671,1.12,5.671,1.12s9.902,4.205,7.791,5.538c-2.111,1.333-5.01,0.412-6.19,0.741
				c-1.18,0.33-5.406-0.411-5.406-0.411L413.679,244.06z"/>
			<g>
				<path style="fill:#CF7E50;" d="M412.851,239.988l0.828,4.072c0,0,4.632-0.172,6.176-2.722c0,0,1.828-1.076,2.702-1.681
					c0.874-0.606,3.154-1.032,3.861-4.641c0,0,1.552-1.918,1.209-2.628c-0.343-0.71-1.618-2.148-5.348-0.866
					c-3.73,1.283-7.737-1.739-7.737-1.739L412.851,239.988z"/>
				<path style="fill:#A3623C;" d="M426.418,235.016c0,0-3.732,1.351-5.668,1.737c-1.936,0.387-7.026-0.548-7.026-0.548
					s4.086,1.638,6.779,1.332c0.303-0.035,5.727-1.759,5.727-1.759L426.418,235.016z"/>
				<path style="fill:#A3623C;" d="M419.855,241.338c0,0-1.758-0.288-2.153-0.283s-4.03-0.456-4.03-0.456l3.558,1.007l2.328,0.15
					L419.855,241.338z"/>
				<path style="fill:#A3623C;" d="M414.463,230.255c0,0,4.267,2.676,5.349,2.425c1.082-0.251,6.59-1.402,6.59-1.402
					s-3.364-0.248-5.141,0.297C419.484,232.119,414.463,230.255,414.463,230.255z"/>
			</g>
		</g>
		<path style="fill:#AEC9E8;" d="M547.998,269.916c0,0-71.059,0-88.026,15.728c-6.529,6.052-7.299,58.411-3.572,60.39
			c6.221,3.303,58.174-3.303,66.374-4.542C530.973,340.254,547.998,269.916,547.998,269.916z"/>
		<path style="fill:#C5D5E8;" d="M459.972,285.645c16.967-15.728,88.026-15.728,88.026-15.728l-27.178-3.176
			c0,0-48.508,0.799-69.74,13.55c-14.439,8.672-7.862,63.364-7.862,63.364l13.182,2.381
			C452.673,344.056,453.443,291.697,459.972,285.645z"/>
	</g>
	<g>
		<ellipse style="fill:#F2F5F7;" cx="203.697" cy="450.539" rx="142.261" ry="31.842"/>
		<g>
			<g>
				<path style="fill:#0A0604;" d="M193.929,467.819h-6.031c-2.367,0-4.286-1.919-4.286-4.286v-8.708
					c0-2.367,1.919-4.286,4.286-4.286h6.031c2.367,0,4.286,1.919,4.286,4.286v8.708C198.215,465.9,196.296,467.819,193.929,467.819z
					"/>
				<path style="fill:#99B0CC;" d="M191.806,459.179c0,3.844-1.599,6.96-3.571,6.96c-1.972,0-3.571-3.116-3.571-6.96
					c0-3.844,1.599-6.96,3.571-6.96C190.207,452.219,191.806,455.335,191.806,459.179z"/>
			</g>
			<g>
				<path style="fill:#0A0604;" d="M95.949,474.779h-6.031c-2.367,0-4.286-1.919-4.286-4.286v-8.708
					c0-2.367,1.919-4.286,4.286-4.286h6.031c2.367,0,4.286,1.919,4.286,4.286v8.708C100.235,472.86,98.316,474.779,95.949,474.779z"
					/>
				<ellipse style="fill:#99B0CC;" cx="95.825" cy="466.139" rx="3.571" ry="6.96"/>
			</g>
			<g>
				<path style="fill:#0A0604;" d="M174.612,425.146h-6.031c-2.367,0-4.286-1.919-4.286-4.286v-8.708
					c0-2.367,1.919-4.286,4.286-4.286h6.031c2.367,0,4.286,1.919,4.286,4.286v8.708
					C178.897,423.227,176.979,425.146,174.612,425.146z"/>
				<path style="fill:#99B0CC;" d="M172.488,416.506c0,3.844-1.599,6.96-3.571,6.96c-1.972,0-3.571-3.116-3.571-6.96
					s1.599-6.96,3.571-6.96C170.889,409.546,172.488,412.662,172.488,416.506z"/>
			</g>
			<path style="fill:#99B0CC;" d="M135.497,395.554v28.752c0,1.26-0.662,2.427-1.743,3.073l-45.183,27.024
				c-2.546,1.523-2.242,5.304,0.515,6.4l1.565,0.623c1.021,0.406,2.171,0.321,3.121-0.23l45.595-26.461
				c0.959-0.556,2.121-0.637,3.148-0.219l46.562,18.962c1.118,0.455,2.391,0.317,3.384-0.369l0,0
				c2.329-1.607,1.962-5.152-0.646-6.249l-38.464-16.165c-2.637-1.108-2.974-4.709-0.589-6.288l20.589-13.624
				c2.556-1.691,1.945-5.602-1.005-6.433l-0.053-0.015c-0.984-0.277-2.039-0.12-2.9,0.43l-20.366,13.028
				c-2.411,1.543-5.568-0.228-5.51-3.09l0.391-19.077c0.041-2.006-1.574-3.654-3.58-3.654h-1.25
				C137.1,391.973,135.497,393.577,135.497,395.554z"/>
			<path style="fill:#C5D5E8;" d="M226.998,274.961c31.04,54.406,28.743,105.734-24.496,124.389
				c-63.07,22.101-143.58,7.634-149.25-50.941c-5.67-58.575-5.109-140.458,55.747-155.713
				C163.718,178.981,197.836,223.846,226.998,274.961z"/>
			<path style="fill:#AEC9E8;" d="M202.502,399.35c21.066-7.382,34.148-19.882,40.353-35.661
				c-63.278,31.295-120.536,25.593-156.42-5.044c-25.508-21.778-26.457-81.948-23.366-125.298
				c-14.467,32.853-13.357,78.498-9.818,115.062C58.922,406.984,139.432,421.451,202.502,399.35z"/>
			<path style="fill:#99B0CC;" d="M207.895,267.264c23.215,31.155,25.674,62.929-5.696,78.431
				c-37.163,18.365-87.822,15.533-95.733-20.102c-7.91-35.635-13.743-86.091,22.574-100.074
				C161.694,212.946,186.084,237.994,207.895,267.264z"/>
			<g>
				<path style="fill:#29160B;" d="M136.963,160.501c0,0-11.979,4.693-13.652,21.601c-1.673,16.908-3.077,69.53-3.077,69.53
					s25.278,6.626,53.241-1.105c0,0,2.603-87.122-17.005-87.7C139.504,162.327,136.963,160.501,136.963,160.501z"/>
				<g>
					<g>
						<path style="fill:#EFA97C;" d="M284.754,412.072c0,0,5.61-20.942,12.2-16.174c3.132,2.266,18.024,25.126,31.702,29.457
							c0,0,3.31,6.679-18.535,1.668C288.276,422.01,281.738,419.342,284.754,412.072z"/>
						<path style="fill:#EFA97C;" d="M285.376,410.643l1.072-11.732c0,0,5.286-5.261,10.206-3.013L285.376,410.643z"/>
						<path style="fill:#293173;" d="M333.334,432.663c-20.143,3.879-39.382-9.335-39.382-9.335
							c-10.436-1.09-12.214-3.987-9.198-11.256c0,0,0.087-0.207,0.243-0.567h0c0.056,0.045,0.112,0.091,0.168,0.135
							c3.865,3.099,9.641,0.64,10.165-4.286c0.376-3.541,1.036-7,2.193-8.52c0.594-0.781,1.329-0.993,2.113-0.875
							c0,0,0,0.001,0,0.001c0.33,0.44,0.691,0.905,1.096,1.408c0.037,0.046,0.078,0.095,0.115,0.142
							c0.371,0.459,0.752,0.924,1.178,1.425c6.277,7.421,18.298,19.191,28.143,23.256c1.901,0.785,3.638,1.969,4.851,3.63
							C336.91,430.41,336.231,432.105,333.334,432.663z"/>
						<path style="fill:#FFFFFF;" d="M293.952,423.328c0,0,19.239,13.214,39.382,9.335c2.897-0.558,3.576-2.253,1.687-4.84
							c-1.213-1.661-2.95-2.845-4.851-3.63c-1.545-0.638-3.146-1.483-4.768-2.454c-4.069,2.682-6.015,7.315-6.015,7.315
							c-12.181-1.564-27.77-9.564-27.77-9.564c-1.899-3.216-4.686-5.671-6.913-7.287
							C281.766,419.373,283.581,422.245,293.952,423.328z"/>
						<g>
							<g>
								<path style="fill:#FFFFFF;" d="M307.298,406.452c-2.808-0.136-3.073,1.486-4.524,3.645c0.1-0.334,0.234-0.653,0.352-0.985
									C304.066,406.924,304.869,405.517,307.298,406.452L307.298,406.452z"/>
								<path style="fill:#FFFFFF;" d="M309.101,408.377c-3.159,0.016-2.893,1.795-4.768,4.17
									C305.459,409.619,305.927,407.431,309.101,408.377L309.101,408.377z"/>
								<path style="fill:#FFFFFF;" d="M311.149,410.402c-3.159,0.016-2.67,2.005-4.545,4.38
									C307.73,411.854,307.975,409.456,311.149,410.402L311.149,410.402z"/>
							</g>
							<path style="fill:#FFFFFF;" d="M299.309,408.552c1.655-0.198,2.981-1.404,3.767-2.76l0.198,0.261
								c-2.127,0.451-4.943,0.984-6.625-0.847c-0.716-1.008-0.964-2.746,0.206-3.516c1.19-0.552,2.452,0.088,3.517,0.525
								c1.383,0.648,2.651,1.45,3.87,2.351l-0.587,0.307c0.078-0.981-0.456-8.259,1.388-6.953c0.844,1.191,0.57,2.42,0.589,3.713
								c-0.07,1.207-0.201,2.4-0.415,3.586l-0.099-0.168c0.267,0.081,0.651,0.028,0.973-0.075c1.024-0.336,1.871-1.055,2.652-1.788
								c-0.967,1.036-2.172,2.335-3.732,2.154c0,0-0.114-0.025-0.114-0.025c0.125-1.229,0.237-2.467,0.252-3.699
								c0.044-0.995-0.09-2.644-0.488-3.238c-0.383,1.796-0.338,4.394-0.27,6.468l0.026,0.74l-0.614-0.432
								c-1.219-0.773-6.361-4.603-7.033-2.202c-0.464,3.477,4.082,3.255,6.416,2.754c0,0,0.426-0.082,0.426-0.082
								C302.679,407.145,301.158,408.507,299.309,408.552L299.309,408.552z"/>
						</g>
					</g>
					<path style="fill:#293173;" d="M213.725,347.858l26.595,26.197c4.347,4.282,9.217,7.998,14.494,11.061l33.625,19.513
						l9.795-8.685c0,0-57.513-65.94-68.977-74.189"/>
					<g>
						<path style="fill:#EFA97C;" d="M228.432,461.873c0,0,7.268-21.152,10.771-14.796c1.649,2.992,17.202,17.75,29.906,19.332
							c0,0,3.987,5.324-15.994,4.469C233.134,470.023,226.965,468.741,228.432,461.873z"/>
						<path style="fill:#EFA97C;" d="M228.852,460.703l-1.663-13.482c0,0,10.114-8.921,11.326-1.016L228.852,460.703z"/>
						<path style="fill:#293173;" d="M274.399,472.064c-17.046,6.67-36.07-1.805-36.07-1.805c-9.334,0.736-11.364-1.518-9.896-8.386
							c0,0,0.043-0.196,0.122-0.537h0c0.057,0.031,0.113,0.061,0.169,0.092c3.894,2.092,8.564-1.002,8.225-5.409
							c-0.244-3.168-0.226-6.31,0.543-7.832c0.395-0.782,1.005-1.086,1.712-1.11c0,0,0,0,0,0.001
							c0.361,0.333,0.753,0.682,1.19,1.058c0.04,0.034,0.084,0.071,0.124,0.106c0.4,0.342,0.81,0.689,1.265,1.06
							c6.711,5.494,19.168,13.872,28.466,15.843c1.795,0.381,3.512,1.138,4.845,2.399
							C277.171,469.507,276.851,471.105,274.399,472.064z"/>
						<path style="fill:#FFFFFF;" d="M238.329,470.259c0,0,19.024,8.475,36.07,1.805c2.452-0.959,2.772-2.557,0.695-4.521
							c-1.334-1.261-3.05-2.018-4.845-2.399c-1.459-0.309-3.001-0.791-4.582-1.38c-3.135,3.013-4.092,7.394-4.092,7.394
							c-10.942,0.603-25.918-3.889-25.918-3.889c-2.188-2.514-5.031-4.216-7.248-5.273
							C226.994,468.764,229.053,470.99,238.329,470.259z"/>
						<g>
							<g>
								<path style="fill:#FFFFFF;" d="M249.36,453.411c-3.148-0.073-5.19,2.432-6.807,4.788c0.11-0.361,0.259-0.708,0.39-1.067
									C243.988,454.758,246.633,452.47,249.36,453.411L249.36,453.411z"/>
								<path style="fill:#FFFFFF;" d="M252.566,455.673c-3.54,0.099-6.163,2.518-8.254,5.118
									C245.56,457.617,249.004,454.739,252.566,455.673L252.566,455.673z"/>
								<path style="fill:#FFFFFF;" d="M255.121,458.015c-3.54,0.099-6.163,2.518-8.254,5.118
									C248.115,459.958,251.559,457.081,255.121,458.015L255.121,458.015z"/>
							</g>
							<path style="fill:#FFFFFF;" d="M240.28,456.21c1.475-0.197,2.643-1.29,3.327-2.509l0.18,0.23
								c-1.892,0.428-4.398,0.939-5.921-0.674c-0.651-0.89-0.894-2.439,0.14-3.14c1.055-0.508,2.189,0.048,3.145,0.425
								c1.242,0.562,2.383,1.261,3.482,2.05l-0.52,0.282c0.058-0.876-0.509-7.364,1.153-6.221c0.768,1.052,0.538,2.152,0.571,3.306
								c-0.048,1.077-0.149,2.144-0.326,3.205l-0.09-0.148c0.24,0.069,0.581,0.017,0.867-0.079c0.91-0.312,1.656-0.964,2.344-1.628
								c-0.85,0.936-1.909,2.11-3.304,1.968c0,0-0.102-0.021-0.102-0.021c0.096-1.098,0.181-2.204,0.179-3.303
								c0.027-0.888-0.113-2.358-0.475-2.883c-0.32,1.607-0.248,3.925-0.161,5.774c0,0,0.032,0.66,0.032,0.66l-0.553-0.378
								c-1.097-0.675-5.732-4.029-6.302-1.878c-0.371,3.108,3.682,2.854,5.759,2.378c0,0,0.379-0.078,0.379-0.078
								C243.27,454.913,241.929,456.147,240.28,456.21L240.28,456.21z"/>
						</g>
					</g>
					<path style="fill:#4955A6;" d="M129.253,291.339c0,0-6.28,35.252,8.24,48.409c14.52,13.157,80.563,15.312,80.563,15.312
						l0.825,49.569l1.476,42.723h20.717c0,0,11.696-106.502,9.868-114.045c-1.948-8.038-42.815-25.078-67.789-35.567l-2.509-9.565
						L129.253,291.339z"/>
					<polygon style="fill:#293173;" points="173.814,288.596 166.443,289.05 157.215,308.586 208.527,308.586 169.332,302.183 					
						"/>
					<path style="fill:#4955A6;" d="M203.925,338.705c0,0-54.831,24.424-75.145,7.372c-15.008-12.598,0.474-54.739,0.474-54.739
						l41.646-2.484l-5.888,20.022c0,0,57.14-4.824,63.44-0.29c0,0,8.026,7.46,10.605,14.561
						C239.057,323.147,224.852,331.108,203.925,338.705z"/>
					<path style="fill:#293173;" d="M238.815,323.28c-1.917,1.053-15.519,8.392-34.89,15.425c0,0-17.804,7.594-35.991,11.424
						c12.607,1.936,27.209,3.666,37.626,4.26c11.799-17.632,30.957-29.765,33.261-31.106
						C238.818,323.282,238.817,323.281,238.815,323.28z"/>
				</g>
				<polygon style="fill:#EFA97C;" points="194.215,246.704 197.695,267.871 177.854,276.137 169.126,251.329 				"/>
				<path style="fill:#CF885F;" d="M184.484,254.168l0.325,13.544l8.451,0.994c0,0-10.531,0.354-11.298,5.479l-4.448-25.27
					l10.033-1.425L184.484,254.168z"/>
				<path style="fill:#EFA97C;" d="M230.548,289.934l8.457,0.207c0.258-1.244,4.08-4.903,2.962-5.505
					c-7.871-4.239-39.195-16.522-44.585-16.839c-8.854-0.521-13.858,0.599-16.559,2.63c-0.664,0.5-3.162,3.839-2.787,4.69
					c1.428,3.241,3.642,5.679,14.083,10.705C207.757,293.35,230.548,289.934,230.548,289.934z"/>
				<g>
					<path style="fill:#589160;" d="M178.916,215.747l-18.949-6.586l-24.409,0.486l-17.191,10.251
						c-5.406,3.615-6.523,11.474-6.352,19.82c0.091,4.432,0.57,8.847,1.305,13.218l1.975,11.743c0,0,14.869-3.953,28.997-5.7
						l-29.099-3.83l8.178,25.6l3.486,18.094c0,0,27.467,17.103,58.34-2.07l-2.04-29.769c0,0,11.032-2.97,6.187-17.245
						c0,0-0.178,1.71,8.349-2.269c0,0-4.435-15.147-11.82-24.871C184.612,220.957,180.865,216.493,178.916,215.747z"/>
					<path style="fill:#FFFFFF;" d="M135.559,209.647c0,0-3.843,8.604,12.969,12.284c6.037,1.322,8.688-4.432,8.688-4.432
						S143.407,215.823,135.559,209.647z"/>
					<path style="fill:#FFFFFF;" d="M157.215,217.499l2.752-8.339c0,0,3.661,1.458,5.191,3.976
						C167.148,216.412,167.539,219.821,157.215,217.499z"/>
					<path style="fill:#436E49;" d="M146.163,257.617c-1.298-5.908-3.341-11.562-6.138-16.927
						C141.318,246.601,143.373,252.25,146.163,257.617L146.163,257.617z"/>
					<path style="fill:#436E49;" d="M129.767,264.066c22.202,11.339,53.461,2.918,53.461,2.918l0.3,5.399
						c0,0-21.387,2.375-34.876-0.339C135.162,269.331,129.767,264.066,129.767,264.066z"/>
					<path style="fill:#EFA97C;" d="M135.559,209.647c0,0,2.333-2.831,3.354-7.415c0.885-3.971,0.712-9.008-1.906-17.709
						l25.582,2.096c0,0-5.904,21.419-2.622,22.542v0c3.888,8.114-1.511,10.632-14.082,6.431c-2.581-0.863-5.002-2.144-7.217-3.725
						L135.559,209.647z"/>
					<path style="fill:#CF885F;" d="M162.589,192.608c0,0-4.561,6.774-3.519,14.878c-13.699-0.569-18.863-12.633-18.863-12.633
						l-1.193-1.65c0,0-0.094-2.949-0.384-4.129L162.589,192.608z"/>
					<path style="fill:#EFA97C;" d="M170.614,171.719c0,0,11.26,32.384-10.894,34.366c-14.715,1.317-23.508-19.329-25.295-22.977
						c-1.787-3.648-5.328-15.248,1.702-19.065C143.157,160.228,162.155,153.781,170.614,171.719z"/>
					<path style="fill:none;stroke:#0A0604;stroke-miterlimit:10;" d="M116.869,166.674"/>
					<path style="fill:#436E49;" d="M186.033,230.569c-1.036,1.777-1.883,3.62-2.637,5.503c0.892,2.36,1.796,4.715,2.801,7.031
						c0.963,2.252,1.997,4.477,3.148,6.656c-0.635-2.381-1.386-4.716-2.208-7.024c-0.81-2.313-1.714-4.588-2.634-6.857l0.003,0.393
						C185.136,234.415,185.672,232.525,186.033,230.569L186.033,230.569z"/>
					<path style="fill:#29160B;" d="M168.676,168.291c0,0-2.413-4.065-6.82-5.835c-0.893-0.359-6.207,14.552-20.043,15.916
						l1.06,6.797l-8.488,2.398c0,0,0.588,1.062-1.264-0.855c-1.852-1.916-12.875-28.971,16.358-28.497
						C167.966,158.515,168.676,168.291,168.676,168.291z"/>
					<path style="fill:#EFA97C;" d="M134.954,191.098c2.172,2.9,5.705,3.925,7.891,2.287c2.186-1.637,2.198-5.315,0.027-8.216
						c-2.172-2.9-5.705-3.924-7.891-2.287C132.794,184.519,132.782,188.197,134.954,191.098z"/>
					<path style="fill:#CF885F;" d="M135.901,185.23c2.475,0.755,4.565,2.401,5.1,4.885c0,0,0.608-0.332,0.608-0.332
						c-1.023-0.788-2.068-1.552-3.2-2.219c1.062,1.261,2.303,2.382,3.515,3.492l-0.194-1.068
						C141.399,187.259,138.717,185.153,135.901,185.23L135.901,185.23z"/>
					<path style="fill:#593119;" d="M126.057,164.942"/>
					<g>
						<g>
							<path style="fill:#29160B;" d="M153.183,175.372c0,0,2.307-3.705,6.15-3.502c2.18,0.115,1.092,1.794-0.121,2.74
								C158,175.555,152.771,177.477,153.183,175.372z"/>
						</g>
						<g>
							<path style="fill:#29160B;" d="M166.653,171.768c0,0,3.628-1.148,4.845,1.132c0.69,1.293-0.97,1.79-2.118,1.734
								C168.231,174.579,164.911,172.923,166.653,171.768z"/>
						</g>
					</g>
					<g>
						<path style="fill:#A3623C;" d="M158.31,191.986c2.889,0.894,5.543,1.652,8.557,1.514
							C164.16,195.071,160.446,194.123,158.31,191.986L158.31,191.986z"/>
					</g>
					<path style="fill:#CF885F;" d="M166.314,180.973l2.67,5.238c0.72,0.293,2.914,0.161,2.504,1.154
						c-1.009,2.446-2.983,2.551-2.983,2.551s-1.964-0.809-2.126-1.283c-1.041-3.044-2.977-8.323-1.538-8.413
						C165.616,180.173,166.314,180.973,166.314,180.973z"/>
					<path style="fill:#29160B;" d="M168.833,189.04c0,0-0.604-1.184-1.8-0.46"/>
					<g>
						<g>
							<path style="fill:#0A0604;" d="M172.145,178.996c0.232,1.724-0.504,5.248-2.879,3.658c-0.524-0.367-0.942-0.845-1.211-1.401
								c0.493,0.353,1.01,0.637,1.513,0.864c1.067,0.587,1.634-0.467,1.968-1.446L172.145,178.996L172.145,178.996z"/>
						</g>
					</g>
					<g>
						<g>
							<path style="fill:#0A0604;" d="M155.192,181.995c2.323,1.58,4.995,2.657,6.913-0.084
								C161.293,185.863,156.808,184.691,155.192,181.995L155.192,181.995z"/>
						</g>
					</g>
					<path style="fill:#29160B;" d="M155.166,169.491c0,0-9.076,17.78-15.825,6.088l-3.439-1.117
						c-0.081-0.426,4.441,19.354,19.946-3.867L155.166,169.491z"/>
				</g>
				<path style="fill:#EFA97C;" d="M172.939,301.859l8.371,0.503c-0.08-1.267,9.447-7.29,8.209-7.576
					c-8.712-2.007-40.017-17.021-45.299-15.902c-8.676,1.838-18.408,3.078-20.476,5.751c-0.509,0.658-0.628,4.937-0.041,5.659
					c2.234,2.748,6.61,6.21,18.009,8.297C158.783,301.716,172.939,301.859,172.939,301.859z"/>
				<path style="fill:#4A413C;" d="M251.818,304.011l-33.104-3.76c-0.023-0.003-0.046-0.002-0.069,0l-47.142,5.617
					c-0.176,0.021-0.311,0.191-0.316,0.397l-0.025,1.047c-0.005,0.209,0.127,0.388,0.305,0.413l31.374,4.45
					c0.284,0.04,0.571,0.042,0.855,0.004l48.098-6.317c0.174-0.023,0.308-0.192,0.313-0.397l0.025-1.042
					C252.136,304.212,252,304.032,251.818,304.011z"/>
				<g>
					<g>
						<path style="fill:#EFA97C;" d="M190.535,293.322c0,0,9.077-1.476,9.839-1.262c0.762,0.214,7.239,7.783,6.237,9.417
							c-1.002,1.635-1.565,1.237-5.351-3.06c-3.786-4.298-3.149-2.371-3.149-2.371s-6.826,4.453-7.754,5.931
							c0,0-3.488,1.023-6.802,1.247c-1.623,0.11-3.746-1.809-3.75-3.402C179.791,294.786,187.402,294.041,190.535,293.322z"/>
						<path style="fill:#EFA97C;" d="M198.11,296.046c0,0-0.637-1.927,3.149,2.371c2.56,2.906,3.645,4.024,4.39,3.941
							c-1.76-1.877-6.4-6.867-6.665-7.571l-1.619,0.627l0.568,0.749C198.037,296.094,198.11,296.046,198.11,296.046z"/>
						<path style="fill:#EFA97C;" d="M193.143,295.417c0,0,5.189,3.589,6.131,4.951c0.942,1.363,2.047,3.61,2.487,3.992
							c0.441,0.382,2.438,0.125,1.817-2.459c-0.621-2.585-1.919-3.788-2.559-4.352c-0.64-0.563-3.984-2.685-3.984-2.685
							L193.143,295.417z"/>
						<path style="fill:#EFA97C;" d="M188.836,296.519c0,0,5.189,3.589,6.131,4.951c0.942,1.362,2.047,3.61,2.487,3.992
							c0.441,0.382,2.439,0.125,1.817-2.46c-0.621-2.585-1.919-3.788-2.559-4.352c-0.64-0.563-3.984-2.685-3.984-2.685
							L188.836,296.519z"/>
						<path style="fill:#EFA97C;" d="M183.691,297.533c0,0,5.837,3.009,6.666,4.444c0.829,1.434,1.754,3.775,2.16,4.187
							c0.406,0.413,2.389,0.269,1.964-2.384c-0.425-2.653-1.615-3.948-2.204-4.555c-0.589-0.608-3.726-2.952-3.726-2.952
							L183.691,297.533z"/>
					</g>
				</g>
				<path style="fill:#4A413C;" d="M250.801,305.493l-44.381,4.853c-1.391,0.152-2.557-1.188-2.448-2.812l3.228-47.786
					c0.093-1.377,1.081-2.444,2.264-2.448l44.611-0.128c1.327-0.004,2.363,1.32,2.239,2.862l-3.458,43.062
					C252.755,304.365,251.889,305.374,250.801,305.493z"/>
				<path style="fill:#0A0604;" d="M235.183,284.122c-0.25,1.924-1.294,3.342-2.332,3.168c-1.038-0.175-1.676-1.876-1.426-3.801
					c0.25-1.924,1.294-3.342,2.332-3.168C234.795,280.496,235.433,282.198,235.183,284.122z"/>
				<path style="fill:#0A0604;" d="M171.187,306.265l-0.025,1.047c-0.005,0.209,0.127,0.388,0.305,0.413l31.374,4.45
					c0.196,0.028,0.393,0.03,0.59,0.021l0.334-0.806c0.226-0.546-0.126-1.159-0.711-1.238l-31.549-4.285l-0.285,0.244
					C171.2,306.159,171.188,306.211,171.187,306.265z"/>
				<polygon style="fill:#EFA97C;" points="142.526,258.672 146.006,279.839 123.703,290.294 115.296,264.679 				"/>
				<path style="fill:#CF885F;" d="M142.526,258.672l4.431,19.393l0.207,1.131c0,0-12.403,1.553-15.118,5.136
					c0,0,7.923-8.359,13.011-7.504l-6.303-17.371L142.526,258.672z"/>
				<circle style="fill:#FFFFFF;" cx="140.225" cy="194.465" r="2.478"/>
			</g>
		</g>
	</g>
	<g>
		<rect x="209.138" y="95.806" style="fill:#99B0CC;" width="50.103" height="63.802"/>
		<rect x="213.059" y="99.381" style="fill:#F2F5F7;" width="42.262" height="56.651"/>
		
			<rect x="237.879" y="124.878" transform="matrix(0.7071 0.7071 -0.7071 0.7071 168.316 -128.8021)" style="fill:#589160;" width="3.505" height="27.781"/>
		
			<rect x="238.456" y="124.155" transform="matrix(0.221 0.9753 -0.9753 0.221 321.1683 -126.0117)" style="fill:#FFC052;" width="2.024" height="27.781"/>
		<polygon style="fill:#7D59B8;" points="236.403,109.479 235.653,123.532 223.467,116.493 		"/>
		<path style="fill:#FFC052;" d="M226.946,133.11c0,1.72-1.394,3.114-3.114,3.114c-1.72,0-3.114-1.394-3.114-3.114
			c0-1.72,1.394-3.114,3.114-3.114C225.552,129.996,226.946,131.39,226.946,133.11z"/>
	</g>
</g>
</svg>
