<svg xmlns="http://www.w3.org/2000/svg" xmlns:xlink="http://www.w3.org/1999/xlink" width="500" zoomAndPan="magnify" viewBox="0 0 375 374.999991" height="500" preserveAspectRatio="xMidYMid meet" version="1.0"><defs><g/><clipPath id="b8537f69d6"><path d="M 64.007812 148.445312 L 133.757812 148.445312 L 133.757812 226.445312 L 64.007812 226.445312 Z M 64.007812 148.445312 " clip-rule="nonzero"/></clipPath><clipPath id="419226e153"><path d="M 100 193 L 106 193 L 106 201.25 L 100 201.25 Z M 100 193 " clip-rule="nonzero"/></clipPath><clipPath id="d533a805e9"><path d="M 102 182 L 109 182 L 109 201.25 L 102 201.25 Z M 102 182 " clip-rule="nonzero"/></clipPath><clipPath id="71615ee497"><path d="M 95 180 L 111 180 L 111 201.25 L 95 201.25 Z M 95 180 " clip-rule="nonzero"/></clipPath><clipPath id="c2e47f47af"><path d="M 110 176 L 116.746094 176 L 116.746094 191 L 110 191 Z M 110 176 " clip-rule="nonzero"/></clipPath><clipPath id="2add85af24"><path d="M 91 173.5 L 110 173.5 L 110 181 L 91 181 Z M 91 173.5 " clip-rule="nonzero"/></clipPath><clipPath id="9244772bf4"><path d="M 98 197 L 101 197 L 101 201.25 L 98 201.25 Z M 98 197 " clip-rule="nonzero"/></clipPath></defs><rect x="-37.5" width="450" fill="#ffffff" y="-37.499999" height="449.999989" fill-opacity="1"/><rect x="-37.5" width="450" fill="#ffffff" y="-37.499999" height="449.999989" fill-opacity="1"/><g clip-path="url(#b8537f69d6)"><path fill="#000000" d="M 103.074219 226.378906 C 81.535156 226.378906 64.007812 208.914062 64.007812 187.445312 C 64.007812 165.976562 81.535156 148.511719 103.074219 148.511719 C 113.933594 148.511719 124.386719 153.070312 131.761719 161.019531 L 133.757812 163.171875 L 118.632812 177.113281 L 116.632812 174.960938 C 113.097656 171.148438 108.28125 169.046875 103.074219 169.046875 C 92.894531 169.046875 84.613281 177.300781 84.613281 187.445312 C 84.613281 192.933594 87.054688 198.097656 91.316406 201.617188 L 87.558594 206.132812 C 81.945312 201.496094 78.726562 194.683594 78.726562 187.445312 C 78.726562 174.066406 89.648438 163.179688 103.074219 163.179688 C 108.949219 163.179688 114.445312 165.207031 118.832031 168.9375 L 125.34375 162.9375 C 119.273438 157.46875 111.3125 154.378906 103.074219 154.378906 C 84.78125 154.378906 69.898438 169.210938 69.898438 187.445312 C 69.898438 205.675781 84.78125 220.511719 103.074219 220.511719 C 110.058594 220.511719 116.742188 218.371094 122.402344 214.320312 C 123.921875 213.238281 125.355469 212.011719 126.679688 210.679688 L 130.867188 214.804688 C 129.3125 216.371094 127.621094 217.8125 125.835938 219.089844 C 119.167969 223.859375 111.300781 226.378906 103.074219 226.378906 " fill-opacity="1" fill-rule="nonzero"/></g><g clip-path="url(#419226e153)"><path fill="#000000" d="M 101.328125 201.496094 C 101.175781 201.496094 101.027344 201.453125 100.898438 201.355469 C 100.570312 201.117188 100.5 200.65625 100.742188 200.332031 C 102.199219 198.359375 103.261719 196.152344 103.914062 193.78125 C 104.019531 193.390625 104.425781 193.160156 104.816406 193.273438 C 105.210938 193.378906 105.4375 193.78125 105.328125 194.175781 C 104.625 196.714844 103.480469 199.082031 101.917969 201.207031 C 101.777344 201.390625 101.558594 201.496094 101.328125 201.496094 Z M 101.328125 201.496094 " fill-opacity="1" fill-rule="nonzero"/></g><path fill="#000000" d="M 96.90625 200.15625 C 96.746094 200.15625 96.589844 200.105469 96.457031 200.007812 C 96.136719 199.757812 96.082031 199.300781 96.328125 198.980469 C 98.664062 195.964844 99.949219 192.199219 99.949219 188.386719 L 99.949219 187.601562 C 99.949219 185.898438 101.300781 184.484375 102.964844 184.453125 C 103.789062 184.441406 104.582031 184.75 105.175781 185.332031 C 105.769531 185.914062 106.09375 186.695312 106.09375 187.523438 L 106.09375 188.507812 C 106.09375 189.375 106.039062 190.25 105.9375 191.113281 C 105.886719 191.515625 105.523438 191.804688 105.121094 191.753906 C 104.714844 191.703125 104.429688 191.335938 104.480469 190.933594 C 104.582031 190.132812 104.625 189.3125 104.625 188.507812 L 104.625 187.519531 C 104.625 187.082031 104.457031 186.679688 104.144531 186.375 C 103.835938 186.074219 103.425781 185.898438 102.988281 185.914062 C 102.121094 185.933594 101.414062 186.6875 101.414062 187.597656 L 101.414062 188.382812 C 101.414062 192.519531 100.015625 196.601562 97.484375 199.871094 C 97.335938 200.054688 97.125 200.15625 96.90625 200.15625 Z M 96.90625 200.15625 " fill-opacity="1" fill-rule="nonzero"/><g clip-path="url(#d533a805e9)"><path fill="#000000" d="M 104.046875 201.496094 C 103.925781 201.496094 103.796875 201.464844 103.679688 201.398438 C 103.332031 201.195312 103.207031 200.746094 103.414062 200.394531 L 103.601562 200.074219 C 105.707031 196.449219 106.816406 192.320312 106.816406 188.128906 L 106.816406 187.519531 C 106.816406 185.46875 105.148438 183.761719 103.09375 183.722656 C 102.691406 183.71875 102.367188 183.382812 102.378906 182.976562 C 102.382812 182.578125 102.714844 182.257812 103.113281 182.257812 C 103.117188 182.257812 103.125 182.257812 103.128906 182.257812 C 105.976562 182.316406 108.289062 184.675781 108.289062 187.519531 L 108.289062 188.128906 C 108.289062 192.578125 107.105469 196.960938 104.871094 200.808594 L 104.6875 201.128906 C 104.546875 201.363281 104.300781 201.496094 104.046875 201.496094 Z M 104.046875 201.496094 " fill-opacity="1" fill-rule="nonzero"/></g><path fill="#000000" d="M 95.003906 198.929688 C 94.851562 198.929688 94.703125 198.882812 94.566406 198.785156 C 94.242188 198.542969 94.175781 198.082031 94.414062 197.757812 L 94.964844 197.015625 C 96.765625 194.601562 97.757812 191.605469 97.757812 188.589844 L 97.757812 187.621094 C 97.757812 185.894531 98.597656 184.253906 100.003906 183.242188 C 100.335938 183.003906 100.789062 183.078125 101.03125 183.410156 C 101.265625 183.738281 101.195312 184.195312 100.863281 184.433594 C 99.835938 185.175781 99.226562 186.371094 99.226562 187.625 L 99.226562 188.59375 C 99.226562 191.921875 98.132812 195.230469 96.148438 197.898438 L 95.597656 198.636719 C 95.453125 198.828125 95.226562 198.929688 95.003906 198.929688 Z M 95.003906 198.929688 " fill-opacity="1" fill-rule="nonzero"/><g clip-path="url(#71615ee497)"><path fill="#000000" d="M 106.800781 201.160156 C 106.695312 201.160156 106.582031 201.136719 106.480469 201.089844 C 106.117188 200.910156 105.964844 200.472656 106.140625 200.105469 L 106.480469 199.40625 C 108.136719 195.996094 109.003906 192.191406 109.003906 188.40625 L 109.003906 187.519531 C 109.003906 184.285156 106.375 181.597656 103.132812 181.535156 C 101.554688 181.496094 100.046875 182.113281 98.890625 183.246094 C 97.710938 184.40625 97.035156 186.011719 97.035156 187.652344 L 97.035156 188.417969 C 97.035156 189.207031 96.960938 190.003906 96.828125 190.78125 C 96.753906 191.179688 96.371094 191.445312 95.972656 191.375 C 95.574219 191.304688 95.3125 190.921875 95.378906 190.523438 C 95.503906 189.828125 95.566406 189.117188 95.566406 188.410156 L 95.566406 187.648438 C 95.566406 185.613281 96.398438 183.628906 97.863281 182.199219 C 99.304688 180.785156 101.183594 180.027344 103.164062 180.066406 C 107.1875 180.144531 110.46875 183.488281 110.46875 187.519531 L 110.46875 188.40625 C 110.46875 192.414062 109.542969 196.441406 107.792969 200.046875 L 107.453125 200.746094 C 107.335938 201.007812 107.070312 201.160156 106.800781 201.160156 Z M 106.800781 201.160156 " fill-opacity="1" fill-rule="nonzero"/></g><path fill="#000000" d="M 93.445312 197.292969 C 93.304688 197.292969 93.160156 197.253906 93.035156 197.167969 C 92.699219 196.945312 92.609375 196.484375 92.839844 196.148438 L 93.519531 195.140625 C 94.027344 194.382812 94.453125 193.5625 94.78125 192.707031 C 94.925781 192.324219 95.347656 192.140625 95.726562 192.285156 C 96.101562 192.429688 96.292969 192.851562 96.148438 193.234375 C 95.785156 194.191406 95.308594 195.109375 94.730469 195.957031 L 94.050781 196.96875 C 93.910156 197.179688 93.679688 197.292969 93.445312 197.292969 Z M 93.445312 197.292969 " fill-opacity="1" fill-rule="nonzero"/><path fill="#000000" d="M 109.738281 199.933594 C 109.636719 199.933594 109.539062 199.910156 109.4375 199.867188 C 109.066406 199.699219 108.902344 199.265625 109.066406 198.894531 L 109.152344 198.714844 C 110.507812 195.699219 111.191406 192.488281 111.191406 189.179688 L 111.191406 187.519531 C 111.191406 185.707031 110.613281 183.992188 109.515625 182.558594 C 109.269531 182.238281 109.332031 181.777344 109.648438 181.53125 C 109.96875 181.285156 110.429688 181.34375 110.675781 181.664062 C 111.972656 183.359375 112.65625 185.382812 112.65625 187.511719 L 112.65625 189.179688 C 112.65625 192.695312 111.925781 196.109375 110.484375 199.316406 L 110.402344 199.496094 C 110.289062 199.769531 110.019531 199.933594 109.738281 199.933594 Z M 109.738281 199.933594 " fill-opacity="1" fill-rule="nonzero"/><path fill="#000000" d="M 91.925781 195.582031 C 91.785156 195.582031 91.640625 195.542969 91.515625 195.457031 C 91.179688 195.234375 91.097656 194.773438 91.320312 194.4375 L 91.746094 193.804688 C 92.816406 192.222656 93.382812 190.378906 93.382812 188.464844 L 93.382812 187.664062 C 93.382812 182.355469 97.632812 177.964844 102.859375 177.878906 C 104.984375 177.847656 107.003906 178.484375 108.707031 179.738281 C 109.03125 179.976562 109.105469 180.433594 108.863281 180.761719 C 108.625 181.085938 108.167969 181.160156 107.839844 180.917969 C 106.390625 179.859375 104.675781 179.308594 102.875 179.347656 C 98.445312 179.421875 94.839844 183.15625 94.839844 187.671875 L 94.839844 188.472656 C 94.839844 190.675781 94.191406 192.804688 92.957031 194.628906 L 92.53125 195.257812 C 92.390625 195.464844 92.160156 195.582031 91.925781 195.582031 Z M 91.925781 195.582031 " fill-opacity="1" fill-rule="nonzero"/><path fill="#000000" d="M 113.015625 197.4375 C 112.9375 197.4375 112.855469 197.425781 112.777344 197.398438 C 112.398438 197.269531 112.191406 196.847656 112.320312 196.46875 C 113.023438 194.398438 113.382812 192.234375 113.382812 190.046875 L 113.382812 187.519531 C 113.382812 184.726562 112.289062 182.109375 110.300781 180.144531 C 108.347656 178.21875 105.765625 177.15625 103.023438 177.15625 C 102.976562 177.15625 102.933594 177.15625 102.882812 177.15625 C 102.007812 177.167969 101.144531 177.292969 100.308594 177.523438 C 99.914062 177.628906 99.511719 177.398438 99.40625 177.011719 C 99.300781 176.617188 99.527344 176.214844 99.914062 176.109375 C 100.871094 175.84375 101.863281 175.703125 102.859375 175.695312 C 106.050781 175.65625 109.054688 176.867188 111.328125 179.101562 C 113.597656 181.34375 114.847656 184.335938 114.847656 187.519531 L 114.847656 190.046875 C 114.847656 192.398438 114.460938 194.71875 113.703125 196.9375 C 113.601562 197.246094 113.316406 197.4375 113.015625 197.4375 Z M 113.015625 197.4375 " fill-opacity="1" fill-rule="nonzero"/><path fill="#000000" d="M 90.726562 193.238281 C 90.613281 193.238281 90.5 193.214844 90.394531 193.160156 C 90.03125 192.980469 89.890625 192.539062 90.070312 192.171875 L 90.445312 191.421875 C 90.933594 190.457031 91.191406 189.375 91.191406 188.292969 L 91.191406 187.679688 C 91.191406 183.300781 93.550781 179.269531 97.355469 177.15625 C 97.707031 176.960938 98.15625 177.089844 98.351562 177.441406 C 98.546875 177.796875 98.417969 178.246094 98.066406 178.441406 C 94.730469 180.296875 92.65625 183.839844 92.65625 187.6875 L 92.65625 188.296875 C 92.65625 189.609375 92.339844 190.917969 91.753906 192.089844 L 91.375 192.839844 C 91.253906 193.085938 90.996094 193.238281 90.726562 193.238281 Z M 90.726562 193.238281 " fill-opacity="1" fill-rule="nonzero"/><g clip-path="url(#c2e47f47af)"><path fill="#000000" d="M 116.175781 190.917969 C 116.160156 190.917969 116.136719 190.917969 116.121094 190.917969 C 115.714844 190.882812 115.414062 190.535156 115.449219 190.132812 C 115.542969 188.875 115.578125 187.519531 115.578125 187.507812 C 115.578125 183.644531 113.820312 180.042969 110.765625 177.644531 C 110.445312 177.394531 110.390625 176.933594 110.640625 176.613281 C 110.894531 176.292969 111.355469 176.238281 111.675781 176.488281 C 115.082031 179.164062 117.039062 183.183594 117.039062 187.519531 C 117.039062 187.59375 117.007812 188.941406 116.90625 190.238281 C 116.878906 190.625 116.558594 190.917969 116.175781 190.917969 Z M 116.175781 190.917969 " fill-opacity="1" fill-rule="nonzero"/></g><g clip-path="url(#2add85af24)"><path fill="#000000" d="M 92.144531 180.628906 C 92 180.628906 91.851562 180.582031 91.722656 180.492188 C 91.394531 180.257812 91.316406 179.804688 91.542969 179.472656 C 94.167969 175.734375 98.457031 173.5 103.023438 173.5 C 105.253906 173.5 107.390625 174.011719 109.363281 175.015625 C 109.722656 175.199219 109.867188 175.636719 109.683594 176.003906 C 109.5 176.359375 109.0625 176.507812 108.695312 176.320312 C 106.929688 175.425781 105.019531 174.964844 103.015625 174.964844 C 98.929688 174.964844 95.089844 176.960938 92.738281 180.3125 C 92.597656 180.515625 92.375 180.628906 92.144531 180.628906 Z M 92.144531 180.628906 " fill-opacity="1" fill-rule="nonzero"/></g><path fill="#000000" d="M 89.957031 190.199219 C 89.636719 190.199219 89.339844 189.984375 89.25 189.667969 C 89.003906 188.78125 89.003906 187.570312 89.003906 187.519531 C 89.003906 185.457031 89.441406 183.464844 90.304688 181.609375 C 90.480469 181.246094 90.910156 181.082031 91.28125 181.257812 C 91.644531 181.425781 91.808594 181.863281 91.632812 182.230469 C 90.859375 183.890625 90.46875 185.667969 90.46875 187.519531 C 90.46875 187.8125 90.5 188.695312 90.664062 189.269531 C 90.777344 189.660156 90.546875 190.066406 90.160156 190.171875 C 90.09375 190.1875 90.023438 190.199219 89.957031 190.199219 Z M 89.957031 190.199219 " fill-opacity="1" fill-rule="nonzero"/><g clip-path="url(#9244772bf4)"><path fill="#000000" d="M 98.960938 201.160156 C 98.816406 201.160156 98.664062 201.117188 98.535156 201.027344 C 98.207031 200.789062 98.132812 200.332031 98.367188 200.007812 C 98.765625 199.449219 99.140625 198.867188 99.484375 198.277344 C 99.6875 197.929688 100.132812 197.808594 100.488281 198.011719 C 100.835938 198.210938 100.957031 198.660156 100.757812 199.011719 C 100.394531 199.640625 99.988281 200.265625 99.570312 200.859375 C 99.417969 201.054688 99.191406 201.160156 98.960938 201.160156 Z M 98.960938 201.160156 " fill-opacity="1" fill-rule="nonzero"/></g><path fill="#000000" d="M 101.335938 196.9375 C 101.238281 196.9375 101.144531 196.921875 101.046875 196.882812 C 100.679688 196.726562 100.5 196.292969 100.660156 195.925781 C 102.597656 191.371094 102.300781 187.625 102.292969 187.585938 C 102.261719 187.183594 102.558594 186.828125 102.960938 186.796875 C 103.363281 186.769531 103.71875 187.058594 103.75 187.464844 C 103.769531 187.632812 104.078125 191.613281 102.007812 196.496094 C 101.890625 196.769531 101.613281 196.9375 101.335938 196.9375 Z M 101.335938 196.9375 " fill-opacity="1" fill-rule="nonzero"/><g fill="#000000" fill-opacity="1"><g transform="translate(124.91739, 196.675411)"><g><path d="M 0.5625 -10.0625 C 0.5625 -12.96875 1.550781 -15.425781 3.53125 -17.4375 C 5.507812 -19.457031 7.894531 -20.46875 10.6875 -20.46875 C 13.5 -20.46875 15.882812 -19.460938 17.84375 -17.453125 C 19.8125 -15.441406 20.796875 -12.976562 20.796875 -10.0625 C 20.796875 -7.125 19.828125 -4.648438 17.890625 -2.640625 C 15.960938 -0.640625 13.5625 0.359375 10.6875 0.359375 C 7.75 0.359375 5.328125 -0.632812 3.421875 -2.625 C 1.515625 -4.613281 0.5625 -7.09375 0.5625 -10.0625 Z M 5.5 -10.0625 C 5.5 -9.007812 5.660156 -8.046875 5.984375 -7.171875 C 6.316406 -6.304688 6.890625 -5.570312 7.703125 -4.96875 C 8.515625 -4.363281 9.507812 -4.0625 10.6875 -4.0625 C 12.394531 -4.0625 13.679688 -4.644531 14.546875 -5.8125 C 15.421875 -6.988281 15.859375 -8.40625 15.859375 -10.0625 C 15.859375 -11.695312 15.414062 -13.101562 14.53125 -14.28125 C 13.644531 -15.457031 12.363281 -16.046875 10.6875 -16.046875 C 9.03125 -16.046875 7.75 -15.457031 6.84375 -14.28125 C 5.945312 -13.101562 5.5 -11.695312 5.5 -10.0625 Z M 5.5 -10.0625 "/></g></g></g><g fill="#000000" fill-opacity="1"><g transform="translate(146.27577, 196.675411)"><g><path d="M 1.46875 -20.09375 L 7.28125 -20.09375 C 10.070312 -20.09375 12.457031 -19.140625 14.4375 -17.234375 C 16.425781 -15.328125 17.421875 -12.9375 17.421875 -10.0625 C 17.421875 -7.164062 16.429688 -4.765625 14.453125 -2.859375 C 12.484375 -0.953125 10.09375 0 7.28125 0 L 1.46875 0 Z M 6.046875 -4.09375 L 6.75 -4.09375 C 8.414062 -4.09375 9.78125 -4.65625 10.84375 -5.78125 C 11.914062 -6.914062 12.457031 -8.332031 12.46875 -10.03125 C 12.46875 -11.738281 11.9375 -13.160156 10.875 -14.296875 C 9.8125 -15.429688 8.4375 -16 6.75 -16 L 6.046875 -16 Z M 6.046875 -4.09375 "/></g></g></g><g fill="#000000" fill-opacity="1"><g transform="translate(164.248953, 196.675411)"><g><path d="M 12.953125 -20.09375 L 12.953125 -16.078125 L 6.046875 -16.078125 L 6.046875 -12.078125 L 12.671875 -12.078125 L 12.671875 -8.0625 L 6.046875 -8.0625 L 6.046875 -4.015625 L 12.953125 -4.015625 L 12.953125 0 L 1.46875 0 L 1.46875 -20.09375 Z M 12.953125 -20.09375 "/></g></g></g><g fill="#000000" fill-opacity="1"><g transform="translate(178.374219, 196.675411)"><g><path d="M 18.078125 0 L 17.125 -11.90625 L 17 -11.90625 L 12.890625 -0.125 L 10.15625 -0.125 L 6.046875 -11.90625 L 5.921875 -11.90625 L 4.96875 0 L 0.390625 0 L 2.1875 -20.09375 L 7.0625 -20.09375 L 11.515625 -8.5 L 15.984375 -20.09375 L 20.859375 -20.09375 L 22.65625 0 Z M 18.078125 0 "/></g></g></g><g fill="#000000" fill-opacity="1"><g transform="translate(201.413017, 196.675411)"><g><path d="M 11.671875 -20.09375 L 19.78125 0 L 14.859375 0 L 13.375 -4.015625 L 5.71875 -4.015625 L 4.234375 0 L -0.6875 0 L 7.421875 -20.09375 Z M 11.8125 -8.03125 L 9.578125 -13.890625 L 9.53125 -13.890625 L 7.28125 -8.03125 Z M 11.8125 -8.03125 "/></g></g></g><g fill="#000000" fill-opacity="1"><g transform="translate(220.506482, 196.675411)"><g><path d="M 1.46875 -20.09375 L 8.640625 -20.09375 C 10.578125 -20.09375 12.15625 -19.578125 13.375 -18.546875 C 14.59375 -17.515625 15.203125 -16.039062 15.203125 -14.125 C 15.203125 -12.644531 14.832031 -11.40625 14.09375 -10.40625 C 13.351562 -9.414062 12.347656 -8.71875 11.078125 -8.3125 L 18 0 L 12.1875 0 L 6.046875 -7.9375 L 6.046875 0 L 1.46875 0 Z M 6.046875 -11.1875 L 6.578125 -11.1875 C 6.992188 -11.1875 7.347656 -11.191406 7.640625 -11.203125 C 7.941406 -11.222656 8.273438 -11.28125 8.640625 -11.375 C 9.015625 -11.46875 9.316406 -11.601562 9.546875 -11.78125 C 9.773438 -11.96875 9.96875 -12.226562 10.125 -12.5625 C 10.289062 -12.90625 10.375 -13.320312 10.375 -13.8125 C 10.375 -14.300781 10.289062 -14.710938 10.125 -15.046875 C 9.96875 -15.390625 9.773438 -15.648438 9.546875 -15.828125 C 9.316406 -16.015625 9.015625 -16.15625 8.640625 -16.25 C 8.273438 -16.34375 7.941406 -16.394531 7.640625 -16.40625 C 7.347656 -16.425781 6.992188 -16.4375 6.578125 -16.4375 L 6.046875 -16.4375 Z M 6.046875 -11.1875 "/></g></g></g><g fill="#000000" fill-opacity="1"><g transform="translate(237.943881, 196.675411)"><g><path d="M 19.75 0 L 13.453125 0 L 6.046875 -8.53125 L 6.046875 0 L 1.46875 0 L 1.46875 -20.09375 L 6.046875 -20.09375 L 6.046875 -11.890625 L 12.9375 -20.09375 L 18.484375 -20.09375 L 10.40625 -10.578125 Z M 19.75 0 "/></g></g></g><g fill="#000000" fill-opacity="1"><g transform="translate(257.1104, 196.675411)"><g><path d="M 12.953125 -20.09375 L 12.953125 -16.078125 L 6.046875 -16.078125 L 6.046875 -12.078125 L 12.671875 -12.078125 L 12.671875 -8.0625 L 6.046875 -8.0625 L 6.046875 -4.015625 L 12.953125 -4.015625 L 12.953125 0 L 1.46875 0 L 1.46875 -20.09375 Z M 12.953125 -20.09375 "/></g></g></g><g fill="#000000" fill-opacity="1"><g transform="translate(271.235666, 196.675411)"><g><path d="M 0.1875 -16.078125 L 0.1875 -20.09375 L 14.328125 -20.09375 L 14.328125 -16.078125 L 9.546875 -16.078125 L 9.546875 0 L 4.96875 0 L 4.96875 -16.078125 Z M 0.1875 -16.078125 "/></g></g></g><g fill="#000000" fill-opacity="1"><g transform="translate(246.686576, 213.048605)"><g><path d="M 0.734375 -1.625 C 0.921875 -1.8125 1.160156 -1.90625 1.453125 -1.90625 C 1.742188 -1.90625 1.984375 -1.8125 2.171875 -1.625 C 2.359375 -1.445312 2.453125 -1.207031 2.453125 -0.90625 C 2.453125 -0.613281 2.359375 -0.375 2.171875 -0.1875 C 1.984375 0 1.742188 0.09375 1.453125 0.09375 C 1.160156 0.09375 0.921875 0 0.734375 -0.1875 C 0.546875 -0.375 0.453125 -0.613281 0.453125 -0.90625 C 0.453125 -1.207031 0.546875 -1.445312 0.734375 -1.625 Z M 0.734375 -1.625 "/></g></g></g><g fill="#000000" fill-opacity="1"><g transform="translate(251.114585, 213.048605)"><g><path d="M 4.78125 -8.46875 C 5.40625 -8.46875 6.019531 -8.335938 6.625 -8.078125 C 7.226562 -7.828125 7.738281 -7.488281 8.15625 -7.0625 L 6.921875 -5.59375 C 6.648438 -5.925781 6.320312 -6.191406 5.9375 -6.390625 C 5.5625 -6.585938 5.1875 -6.6875 4.8125 -6.6875 C 4.144531 -6.6875 3.585938 -6.453125 3.140625 -5.984375 C 2.691406 -5.515625 2.46875 -4.9375 2.46875 -4.25 C 2.46875 -3.539062 2.691406 -2.953125 3.140625 -2.484375 C 3.585938 -2.015625 4.144531 -1.78125 4.8125 -1.78125 C 5.164062 -1.78125 5.53125 -1.863281 5.90625 -2.03125 C 6.289062 -2.207031 6.628906 -2.453125 6.921875 -2.765625 L 8.171875 -1.4375 C 7.710938 -0.976562 7.171875 -0.609375 6.546875 -0.328125 C 5.929688 -0.046875 5.316406 0.09375 4.703125 0.09375 C 3.441406 0.09375 2.390625 -0.316406 1.546875 -1.140625 C 0.703125 -1.960938 0.28125 -2.988281 0.28125 -4.21875 C 0.28125 -5.425781 0.707031 -6.4375 1.5625 -7.25 C 2.425781 -8.0625 3.5 -8.46875 4.78125 -8.46875 Z M 4.78125 -8.46875 "/></g></g></g><g fill="#000000" fill-opacity="1"><g transform="translate(260.93061, 213.048605)"><g><path d="M 4.828125 -8.46875 C 6.128906 -8.46875 7.210938 -8.0625 8.078125 -7.25 C 8.941406 -6.4375 9.375 -5.425781 9.375 -4.21875 C 9.375 -2.988281 8.9375 -1.960938 8.0625 -1.140625 C 7.195312 -0.316406 6.113281 0.09375 4.8125 0.09375 C 3.519531 0.09375 2.441406 -0.3125 1.578125 -1.125 C 0.710938 -1.945312 0.28125 -2.976562 0.28125 -4.21875 C 0.28125 -5.4375 0.710938 -6.445312 1.578125 -7.25 C 2.441406 -8.0625 3.523438 -8.46875 4.828125 -8.46875 Z M 4.84375 -6.6875 C 4.1875 -6.6875 3.625 -6.445312 3.15625 -5.96875 C 2.695312 -5.488281 2.46875 -4.894531 2.46875 -4.1875 C 2.46875 -3.488281 2.703125 -2.894531 3.171875 -2.40625 C 3.640625 -1.925781 4.195312 -1.6875 4.84375 -1.6875 C 5.488281 -1.6875 6.035156 -1.925781 6.484375 -2.40625 C 6.941406 -2.894531 7.171875 -3.488281 7.171875 -4.1875 C 7.171875 -4.894531 6.941406 -5.488281 6.484375 -5.96875 C 6.035156 -6.445312 5.488281 -6.6875 4.84375 -6.6875 Z M 4.84375 -6.6875 "/></g></g></g><g fill="#000000" fill-opacity="1"><g transform="translate(272.102632, 213.048605)"><g><path d="M 10.0625 0 L 8.1875 0 L 8.171875 -5.453125 L 6.15625 -0.84375 L 4.765625 -0.84375 L 2.75 -5.453125 L 2.75 0 L 0.84375 0 L 0.84375 -8.40625 L 3.1875 -8.40625 L 5.453125 -3.40625 L 7.734375 -8.40625 L 10.0625 -8.40625 Z M 10.0625 0 "/></g></g></g></svg>